HIERARCHY
ROOT Hips
{
	OFFSET 0.000000 0.000000 0.000000
	CHANNELS 6 Xposition Yposition Zposition Xrotation Yrotation Zrotation
	JOINT Spine
	{
		OFFSET 0.000000 8.340413 -2.713950
		CHANNELS 3 Xrotation Yrotation Zrotation
		JOINT Spine1
		{
			OFFSET 0.000000 11.909995 -2.100054
			CHANNELS 3 Xrotation Yrotation Zrotation
			JOINT Spine2
			{
				OFFSET 0.000000 12.047703 -1.054038
				CHANNELS 3 Xrotation Yrotation Zrotation
				JOINT Spine3
				{
					OFFSET 0.000000 12.093727 -0.000000
					CHANNELS 3 Xrotation Yrotation Zrotation
					JOINT Neck
					{
						OFFSET 0.000000 15.549080 1.554907
						CHANNELS 3 Xrotation Yrotation Zrotation
						JOINT Neck1
						{
							OFFSET 0.000000 4.687340 0.410089
							CHANNELS 3 Xrotation Yrotation Zrotation
							JOINT Head
							{
								OFFSET 0.000000 4.633774 0.817058
								CHANNELS 3 Xrotation Yrotation Zrotation
								JOINT HeadEnd
								{
									OFFSET 0.000000 9.727722 0.000000
									CHANNELS 3 Xrotation Yrotation Zrotation
									End Site
									{
										OFFSET 0.000000 9.727722 -0.000000
									}
								}
							}
						}
					}
					JOINT RightShoulder
					{
						OFFSET 0.000000 11.106487 6.072617
						CHANNELS 3 Xrotation Yrotation Zrotation
						JOINT RightArm
						{
							OFFSET -19.427898 0.000008 0.000000
							CHANNELS 3 Xrotation Yrotation Zrotation
							JOINT RightForeArm
							{
								OFFSET -29.350750 0.000008 0.000000
								CHANNELS 3 Xrotation Yrotation Zrotation
								JOINT RightHand
								{
									OFFSET -27.018089 0.000008 0.000000
									CHANNELS 3 Xrotation Yrotation Zrotation
									JOINT RightHandMiddle1
									{
										OFFSET -9.244034 0.000004 0.000000
										CHANNELS 3 Xrotation Yrotation Zrotation
										JOINT RightHandMiddle2
										{
											OFFSET -4.870026 0.000000 0.000000
											CHANNELS 3 Xrotation Yrotation Zrotation
											JOINT RightHandMiddle3
											{
												OFFSET -3.169075 0.000000 0.000000
												CHANNELS 3 Xrotation Yrotation Zrotation
												JOINT RightHandMiddle4
												{
													OFFSET -1.888374 0.000000 0.000000
													CHANNELS 3 Xrotation Yrotation Zrotation
													End Site
													{
														OFFSET -1.888367 0.000000 0.000000
													}
												}
											}
										}
									}
									JOINT RightHandRing
									{
										OFFSET -0.250000 -0.250000 -0.956503
										CHANNELS 3 Xrotation Yrotation Zrotation
										JOINT RightHandRing1
										{
											OFFSET -8.140221 0.000004 -0.734604
											CHANNELS 3 Xrotation Yrotation Zrotation
											JOINT RightHandRing2
											{
												OFFSET -4.501564 0.000000 -0.406238
												CHANNELS 3 Xrotation Yrotation Zrotation
												JOINT RightHandRing3
												{
													OFFSET -3.068840 0.000000 -0.276944
													CHANNELS 3 Xrotation Yrotation Zrotation
													JOINT RightHandRing4
													{
														OFFSET -1.869919 0.000000 -0.168749
														CHANNELS 3 Xrotation Yrotation Zrotation
														End Site
														{
															OFFSET -1.869919 0.000000 -0.168749
														}
													}
												}
											}
										}
										JOINT RightHandPinky
										{
											OFFSET -0.163017 -0.250000 -0.975101
											CHANNELS 3 Xrotation Yrotation Zrotation
											JOINT RightHandPinky1
											{
												OFFSET -6.681488 0.000004 -1.494111
												CHANNELS 3 Xrotation Yrotation Zrotation
												JOINT RightHandPinky2
												{
													OFFSET -3.580948 0.000000 -0.800769
													CHANNELS 3 Xrotation Yrotation Zrotation
													JOINT RightHandPinky3
													{
														OFFSET -2.276527 0.000000 -0.509077
														CHANNELS 3 Xrotation Yrotation Zrotation
														JOINT RightHandPinky4
														{
															OFFSET -1.690346 0.000000 -0.377994
															CHANNELS 3 Xrotation Yrotation Zrotation
															End Site
															{
																OFFSET -1.690346 0.000000 -0.377994
															}
														}
													}
												}
											}
										}
									}
									JOINT RightHandIndex
									{
										OFFSET -0.250000 -0.250000 0.956503
										CHANNELS 3 Xrotation Yrotation Zrotation
										JOINT RightHandIndex1
										{
											OFFSET -8.934097 0.000004 0.806247
											CHANNELS 3 Xrotation Yrotation Zrotation
											JOINT RightHandIndex2
											{
												OFFSET -4.694687 0.000000 0.423666
												CHANNELS 3 Xrotation Yrotation Zrotation
												JOINT RightHandIndex3
												{
													OFFSET -2.811722 0.000000 0.253741
													CHANNELS 3 Xrotation Yrotation Zrotation
													JOINT RightHandIndex4
													{
														OFFSET -1.709946 0.000000 0.154312
														CHANNELS 3 Xrotation Yrotation Zrotation
														End Site
														{
															OFFSET -1.709946 0.000000 0.154312
														}
													}
												}
											}
										}
										JOINT RightHandThumb1
										{
											OFFSET -0.163017 -0.750000 0.975101
											CHANNELS 3 Xrotation Yrotation Zrotation
											JOINT RightHandThumb2
											{
												OFFSET -5.411659 0.835533 2.244703
												CHANNELS 3 Xrotation Yrotation Zrotation
												JOINT RightHandThumb3
												{
													OFFSET -3.567184 0.550758 1.479634
													CHANNELS 3 Xrotation Yrotation Zrotation
													JOINT RightHandThumb4
													{
														OFFSET -2.150558 0.332031 0.892029
														CHANNELS 3 Xrotation Yrotation Zrotation
														End Site
														{
															OFFSET -2.150558 0.332035 0.892030
														}
													}
												}
											}
										}
									}
								}
							}
						}
					}
					JOINT LeftShoulder
					{
						OFFSET 0.000000 11.106487 6.072617
						CHANNELS 3 Xrotation Yrotation Zrotation
						JOINT LeftArm
						{
							OFFSET 19.427898 0.000008 0.000000
							CHANNELS 3 Xrotation Yrotation Zrotation
							JOINT LeftForeArm
							{
								OFFSET 29.350750 0.000008 0.000000
								CHANNELS 3 Xrotation Yrotation Zrotation
								JOINT LeftHand
								{
									OFFSET 27.018089 0.000008 0.000000
									CHANNELS 3 Xrotation Yrotation Zrotation
									JOINT LeftHandMiddle1
									{
										OFFSET 9.402672 0.000004 0.000000
										CHANNELS 3 Xrotation Yrotation Zrotation
										JOINT LeftHandMiddle2
										{
											OFFSET 4.950096 0.000000 0.000000
											CHANNELS 3 Xrotation Yrotation Zrotation
											JOINT LeftHandMiddle3
											{
												OFFSET 3.211952 0.000000 0.000000
												CHANNELS 3 Xrotation Yrotation Zrotation
												JOINT LeftHandMiddle4
												{
													OFFSET 1.927605 0.000000 0.000000
													CHANNELS 3 Xrotation Yrotation Zrotation
													End Site
													{
														OFFSET 1.927605 0.000000 0.000000
													}
												}
											}
										}
									}
									JOINT LeftHandRing
									{
										OFFSET 0.250000 -0.250000 -0.906160
										CHANNELS 3 Xrotation Yrotation Zrotation
										JOINT LeftHandRing1
										{
											OFFSET 8.286079 0.000004 -0.747767
											CHANNELS 3 Xrotation Yrotation Zrotation
											JOINT LeftHandRing2
											{
												OFFSET 4.585472 0.000000 -0.413810
												CHANNELS 3 Xrotation Yrotation Zrotation
												JOINT LeftHandRing3
												{
													OFFSET 3.124420 0.000000 -0.281959
													CHANNELS 3 Xrotation Yrotation Zrotation
													JOINT LeftHandRing4
													{
														OFFSET 1.908768 0.000000 -0.172254
														CHANNELS 3 Xrotation Yrotation Zrotation
														End Site
														{
															OFFSET 1.908768 0.000000 -0.172255
														}
													}
												}
											}
										}
										JOINT LeftHandPinky
										{
											OFFSET 0.167542 -0.250000 -0.924962
											CHANNELS 3 Xrotation Yrotation Zrotation
											JOINT LeftHandPinky1
											{
												OFFSET 6.823502 0.000004 -1.525868
												CHANNELS 3 Xrotation Yrotation Zrotation
												JOINT LeftHandPinky2
												{
													OFFSET 3.642830 0.000000 -0.814608
													CHANNELS 3 Xrotation Yrotation Zrotation
													JOINT LeftHandPinky3
													{
														OFFSET 2.333107 0.000000 -0.521728
														CHANNELS 3 Xrotation Yrotation Zrotation
														JOINT LeftHandPinky4
														{
															OFFSET 1.725464 0.000000 -0.385847
															CHANNELS 3 Xrotation Yrotation Zrotation
															End Site
															{
																OFFSET 1.725464 0.000000 -0.385848
															}
														}
													}
												}
											}
										}
									}
									JOINT LeftHandIndex
									{
										OFFSET 0.250000 -0.250000 0.906160
										CHANNELS 3 Xrotation Yrotation Zrotation
										JOINT LeftHandIndex1
										{
											OFFSET 9.088005 0.000004 0.820136
											CHANNELS 3 Xrotation Yrotation Zrotation
											JOINT LeftHandIndex2
											{
												OFFSET 4.776550 0.000000 0.431054
												CHANNELS 3 Xrotation Yrotation Zrotation
												JOINT LeftHandIndex3
												{
													OFFSET 2.865135 0.000000 0.258561
													CHANNELS 3 Xrotation Yrotation Zrotation
													JOINT LeftHandIndex4
													{
														OFFSET 1.745476 0.000000 0.157519
														CHANNELS 3 Xrotation Yrotation Zrotation
														End Site
														{
															OFFSET 1.745476 0.000000 0.157518
														}
													}
												}
											}
										}
										JOINT LeftHandThumb1
										{
											OFFSET 0.167542 -0.750000 0.924962
											CHANNELS 3 Xrotation Yrotation Zrotation
											JOINT LeftHandThumb2
											{
												OFFSET 5.551453 0.857117 2.302688
												CHANNELS 3 Xrotation Yrotation Zrotation
												JOINT LeftHandThumb3
												{
													OFFSET 3.625626 0.559780 1.503871
													CHANNELS 3 Xrotation Yrotation Zrotation
													JOINT LeftHandThumb4
													{
														OFFSET 2.195244 0.338936 0.910563
														CHANNELS 3 Xrotation Yrotation Zrotation
														End Site
														{
															OFFSET 2.195244 0.338936 0.910564
														}
													}
												}
											}
										}
									}
								}
							}
						}
					}
				}
			}
		}
	}
	JOINT RightUpLeg
	{
		OFFSET -8.786538 0.000000 0.000000
		CHANNELS 3 Xrotation Yrotation Zrotation
		JOINT RightLeg
		{
			OFFSET 0.000000 -42.170410 0.000000
			CHANNELS 3 Xrotation Yrotation Zrotation
			JOINT RightFoot
			{
				OFFSET 0.000000 -45.949150 0.000000
				CHANNELS 3 Xrotation Yrotation Zrotation
				JOINT RightForeFoot
				{
					OFFSET 0.000000 -4.685799 0.000000
					CHANNELS 3 Xrotation Yrotation Zrotation
					JOINT RightToeBase
					{
						OFFSET 0.000000 0.000000 18.351074
						CHANNELS 3 Xrotation Yrotation Zrotation
						JOINT RightToeBaseEnd
						{
							OFFSET 0.000000 0.000000 6.416922
							CHANNELS 3 Xrotation Yrotation Zrotation
							End Site
							{
								OFFSET 0.000000 0.000000 6.416927
							}
						}
					}
				}
			}
		}
	}
	JOINT LeftUpLeg
	{
		OFFSET 8.786538 0.000000 0.000000
		CHANNELS 3 Xrotation Yrotation Zrotation
		JOINT LeftLeg
		{
			OFFSET 0.000000 -42.170410 0.000000
			CHANNELS 3 Xrotation Yrotation Zrotation
			JOINT LeftFoot
			{
				OFFSET 0.000000 -45.949150 0.000000
				CHANNELS 3 Xrotation Yrotation Zrotation
				JOINT LeftForeFoot
				{
					OFFSET 0.000000 -4.685799 0.000000
					CHANNELS 3 Xrotation Yrotation Zrotation
					JOINT LeftToeBase
					{
						OFFSET 0.000000 0.000000 18.351074
						CHANNELS 3 Xrotation Yrotation Zrotation
						JOINT LeftToeBaseEnd
						{
							OFFSET 0.000000 0.000000 7.522032
							CHANNELS 3 Xrotation Yrotation Zrotation
							End Site
							{
								OFFSET 0.000000 0.000000 7.522036
							}
						}
					}
				}
			}
		}
	}
}
MOTION
Frames: 4
Frame Time: 0.5
-1.810752 -0.051607 -1.331371 -19.348232 19.035076 6.146677 15.706928 -0.489255 0.988425 0.749753 0.105370 -0.033997 3.193162 0.197978 -0.140260 6.552553 0.763941 1.308515 15.306324 -0.751927 11.202158 -3.005555 2.155792 -16.306278 -2.056434 0.617449 -2.972698 -0.000000 -0.000000 -0.000000 -0.000003 -8.408015 12.423722 1.931961 10.170671 59.393764 -687.146606 115.291298 675.149902 0.255233 -6.169718 -10.075038 3.830795 -6.862528 30.877510 0.000001 0.000000 23.902668 0.000001 0.000000 16.860090 0.000000 -0.000000 0.000000 -7.809510 -2.308507 -1.750308 1.072852 -6.911291 39.075390 -3.100106 -1.072830 36.920963 -1.445893 -0.211988 16.200111 -0.000000 -0.000000 -0.000000 -4.014848 -4.922276 -3.153307 -6.364247 -3.442069 30.263861 -8.413678 -3.250101 41.175430 -5.925350 -1.515515 27.645630 0.000000 -0.000000 0.000000 -0.875606 7.513730 -0.669855 4.693135 -8.044929 18.332176 1.233688 0.270844 14.375129 1.330026 0.198361 14.950253 -0.000000 0.000000 -0.000000 44.053982 11.620966 -2.341841 -0.699549 0.200684 -1.344111 2.229253 -3.658257 6.208304 -0.000001 -0.000002 0.000002 -0.000002 5.521723 -14.370557 10.524966 -12.194911 -56.417965 -231.492523 -122.160522 -248.494812 -1.731458 13.913423 4.621338 0.383664 1.568513 -28.360247 0.000000 -0.000000 -20.800894 0.000001 -0.000000 -15.400092 0.000000 0.000000 -0.000000 -11.764092 1.322691 -0.382522 -0.974919 2.068023 -20.323961 -2.747115 0.973504 -33.082951 -0.543405 0.050045 -6.048111 -0.000000 -0.000000 -0.000000 -8.223637 0.789018 0.314670 -0.504711 10.893437 -8.885818 -5.681080 1.490126 -26.628906 -4.359964 0.873399 -20.140696 0.000000 -0.000000 -0.000000 -5.770998 -7.347891 0.736634 5.458296 5.737355 -26.566111 1.238673 -0.254169 -14.668200 0.631534 -0.057801 -7.109117 -0.000000 0.000000 0.000000 50.488091 -5.387530 -12.104006 0.229210 1.345375 -0.581317 -0.252347 -0.954617 1.394105 0.000001 0.000000 0.000001 24.089010 -6.307656 3.113237 2.332514 -0.000000 0.000000 -5.096704 -7.345813 -54.733616 0.000000 -0.000000 0.000000 4.113087 -0.000000 0.000000 0.000000 -0.000000 -0.000000 21.713341 -3.217404 4.322858 3.113295 0.000000 0.000000 -2.633463 19.532213 -6.526306 0.000000 -0.000000 0.000000 0.718151 -0.000000 -0.000000 -0.000000 0.000000 -0.000000
-0.047839 -0.101656 -0.905784 -17.619663 16.478622 5.582114 14.449830 -0.432944 0.700268 0.552533 0.098285 -0.003049 2.975904 0.152884 -0.077310 6.725810 0.784620 1.422114 14.642436 -0.984216 10.809677 -2.395769 1.976147 -16.091843 -1.799161 0.636462 -3.176945 -0.000000 -0.000000 0.000000 -0.000003 -8.792902 11.894505 -1.991966 7.657963 58.743820 -627.268921 111.644089 620.455200 0.069078 -7.189325 -10.549710 3.672514 -7.166503 29.071848 0.000001 0.000000 23.142292 0.000000 0.000000 15.928279 0.000000 0.000000 0.000000 -7.610527 -2.192997 -1.786155 1.082222 -7.123176 35.670944 -2.904771 -1.015777 34.832245 -1.376108 -0.194646 15.450593 -0.000000 -0.000001 -0.000000 -4.151196 -4.817165 -3.003860 -5.696810 -2.942672 27.905464 -7.953043 -3.110099 38.923496 -5.806550 -1.466149 26.992168 -0.000000 -0.000000 -0.000000 -1.054386 7.430618 -0.483869 5.161785 -9.000293 18.933338 1.356901 0.272558 15.604803 1.356898 0.211410 15.371525 -0.000000 0.000000 -0.000000 43.352520 11.366506 -2.134246 -1.049004 0.201398 -1.991298 1.979498 -3.343869 5.577721 -0.000001 -0.000002 0.000002 -0.000002 5.597996 -14.080854 8.645532 -11.277680 -56.525856 -216.770081 -122.145294 -226.512711 -1.680107 15.356671 3.742042 0.410252 1.947477 -27.496529 0.000000 -0.000000 -19.446697 0.000000 -0.000000 -14.427689 0.000000 -0.000000 0.000000 -11.299778 1.341816 -0.390350 -1.001752 1.959522 -20.057415 -2.560511 0.913852 -30.887575 -0.480502 0.045260 -5.414629 -0.000000 0.000000 -0.000000 -8.386996 0.759860 0.196088 -0.493354 10.289436 -7.893033 -5.385740 1.363166 -25.045851 -4.225200 0.806320 -19.354561 0.000000 -0.000000 0.000000 -5.367734 -7.215928 0.865861 5.059471 5.962474 -23.977854 1.067436 -0.190243 -12.155380 0.577661 -0.046979 -6.470628 0.000000 -0.000000 0.000000 49.119808 -5.857258 -11.040280 -0.194464 1.075734 0.350403 -0.358973 -1.159182 1.646503 0.000001 -0.000000 0.000001 26.128120 -7.248178 -4.039442 3.389414 -0.000000 0.000000 -3.765978 -11.056454 -44.287067 0.000000 -0.000000 0.000000 -3.015823 0.000000 -0.000000 -0.000000 -0.000000 -0.000000 20.952085 -3.133649 3.499712 3.164239 -0.000000 0.000000 -4.899448 19.481081 -0.071850 0.000000 -0.000000 0.000000 0.883645 -0.000000 0.000000 0.000000 0.000000 -0.000000
-0.192020 -0.133199 -1.322423 -17.851265 17.147734 5.533524 14.605915 -0.442788 0.901733 0.625816 0.099575 0.002293 3.178263 0.170480 -0.067003 6.633940 0.773185 1.382686 15.154833 -0.985580 10.961131 -2.701252 1.868500 -16.224598 -1.859358 0.614764 -3.099602 -0.000000 -0.000000 0.000000 -0.000003 -8.685307 11.982194 -1.929263 7.625531 58.427696 -646.648682 114.866730 651.643127 0.167913 -6.891478 -10.820547 3.651773 -7.027730 29.672558 0.000001 0.000000 23.574524 0.000000 0.000000 16.219378 0.000000 0.000000 0.000000 -7.532126 -2.193107 -1.813483 1.060107 -7.103854 36.350224 -2.955223 -1.043881 35.391563 -1.398047 -0.199065 15.634362 -0.000000 -0.000001 -0.000000 -4.139120 -4.860369 -3.038192 -5.831141 -2.816657 28.514624 -8.079066 -3.173216 39.621017 -5.872342 -1.500008 27.349936 -0.000000 -0.000000 -0.000000 -1.083884 7.433461 -0.464630 5.330946 -9.025316 19.611412 1.429347 0.288850 16.368332 1.387198 0.220842 15.671553 -0.000000 0.000000 -0.000000 43.350922 11.425248 -2.290138 -1.198146 0.159014 -2.176901 1.940440 -3.265831 5.506753 -0.000001 -0.000002 0.000002 -0.000002 5.574851 -14.104262 9.037720 -11.515734 -56.792965 -215.214645 -123.884468 -223.553513 -1.820334 15.511068 4.446043 0.403848 1.931875 -27.700766 0.000000 -0.000000 -20.355398 0.000000 -0.000000 -14.776867 0.000000 0.000000 0.000000 -11.323236 1.351160 -0.358501 -0.990485 1.999407 -20.213636 -2.657434 0.959982 -32.052032 -0.500563 0.042543 -5.531693 -0.000000 -0.000000 -0.000000 -8.333545 0.778605 0.219981 -0.474603 10.383947 -8.220531 -5.539386 1.410927 -25.657963 -4.308915 0.834055 -19.749105 0.000000 -0.000000 0.000000 -5.389649 -7.277091 0.807543 5.178802 6.149883 -24.223959 1.121155 -0.180832 -13.014384 0.597841 -0.042645 -6.658465 0.000000 -0.000000 0.000000 49.370602 -5.861918 -11.413364 -0.181724 0.802674 0.307329 -0.478487 -1.357441 2.044846 0.000001 -0.000000 0.000001 26.376768 -6.627607 -3.938658 3.000129 -0.000000 0.000000 -3.797607 -10.467826 -47.692425 0.000000 -0.000000 0.000000 -1.939220 0.000000 0.000000 -0.000000 -0.000000 -0.000000 20.864578 -3.146112 3.806582 3.313850 -0.000000 0.000000 -4.775383 19.398445 -2.969313 -0.000000 -0.000000 0.000000 0.845770 -0.000000 0.000000 0.000000 -0.000000 -0.000000
-0.092569 -0.162462 -1.994560 -19.031796 18.157246 5.742940 14.848530 -0.527667 1.116003 0.922710 0.088021 -0.127815 3.714102 0.000151 -0.159826 6.195376 0.661551 1.088107 17.796570 -0.799943 11.556078 -4.554896 1.799716 -16.315613 -2.736875 0.558945 -2.661594 -0.000000 -0.000000 0.000000 -0.000003 -8.199567 13.060745 0.481060 7.744097 58.704521 -751.460083 125.880585 751.844177 0.721145 -5.483562 -11.106001 3.794507 -6.884141 31.130312 0.000001 0.000000 20.792698 0.000000 0.000000 16.032955 0.000000 -0.000000 -0.000000 -7.871035 -2.338201 -1.760154 1.117000 -7.057272 39.803188 -2.957165 -1.058734 35.325249 -1.385757 -0.203748 15.630534 -0.000000 -0.000000 -0.000000 -4.074718 -4.943982 -3.202937 -6.282630 -3.102355 32.014194 -8.130065 -3.192888 39.746407 -5.748654 -1.443720 26.730324 -0.000000 -0.000000 0.000000 -0.860492 7.509084 -0.747359 4.772580 -7.931482 18.614473 1.074145 0.251011 12.150487 1.255095 0.192765 14.143220 -0.000000 0.000000 -0.000000 43.552410 11.764660 -2.557077 -1.021582 -0.002746 -1.649378 1.867434 -3.161504 5.232883 -0.000001 -0.000002 0.000002 -0.000002 5.386561 -14.372968 7.882455 -7.889289 -57.649235 -274.108826 -128.414719 -279.298492 -2.476744 14.019320 7.191974 0.444666 1.802712 -28.107342 0.000000 -0.000000 -20.654514 0.000000 -0.000000 -15.089052 0.000000 0.000000 0.000000 -11.517271 1.410270 -0.377833 -0.938706 2.067433 -20.334446 -2.851270 1.003793 -34.397476 -0.467498 0.027305 -5.240325 -0.000000 0.000000 -0.000000 -8.166674 0.837515 0.199632 -0.405653 10.212163 -9.828275 -5.892571 1.519242 -27.494104 -4.487780 0.863586 -20.542612 -0.000000 -0.000000 -0.000000 -5.528126 -7.338778 0.678443 5.385706 6.125996 -25.372944 1.180310 -0.165900 -13.377855 0.565267 -0.024598 -6.240297 0.000000 0.000000 -0.000000 50.501278 -5.615247 -13.180351 0.146297 0.953640 -0.360063 -0.683394 -1.695325 2.522576 0.000001 0.000000 0.000001 25.593542 -6.294473 -3.970148 4.669386 0.000000 0.000000 -3.418037 -6.462564 -53.956264 0.000000 -0.000000 0.000000 -6.817158 -0.000000 0.000000 0.000000 -0.000000 0.000000 22.275776 -3.362467 3.920910 3.789676 0.000000 0.000000 -4.784379 19.474104 -0.078411 -0.000000 0.000000 0.000000 -0.491480 -0.000000 0.000000 0.000000 -0.000000 0.000000
